#!OML:ASF F:\VICON\USERDATA\INSTALL\Justin_Nancy\Justin_Nancy.ASF
:FULLY-SPECIFIED
:DEGREES
216
root 1.1237 16.9935 -16.8071 24.863 -0.100242 1.00954
lowerback 23.9066 -0.268564 1.01694
upperback 3.29507 0.221531 2.86512
thorax -9.71128 0.123436 2.5237
lowerneck -20.5357 -3.75665 -9.18667
upperneck 13.3824 -3.27592 4.58
head 7.71257 -1.59248 2.59889
rclavicle -7.95139e-016 4.6118e-014
rhumerus -35.4306 2.83486 -77.3364
rradius 74.0041
rwrist -6.6172
rhand -17.1355 15.7038
rfingers 7.12502
rthumb 9.10463 -14.0797
lclavicle -7.95139e-016 4.6118e-014
lhumerus -30.5051 -2.33794 83.1787
lradius 59.1051
lwrist 10.5723
lhand -18.3919 27.2091
lfingers 7.12502
lthumb 7.89214 57.0418
rfemur -51.3111 -1.69964 19.226
rtibia 47.3679
rfoot -17.1433 -7.43613
rtoes 1.00405
lfemur -51.3657 -2.51445 -19.5408
ltibia 45.648
lfoot -18.123 2.86525
ltoes 1.37594
217
root 1.12787 16.9322 -16.8401 26.1556 -0.45498 0.680983
lowerback 24.4193 -0.102394 1.08146
upperback 3.09432 0.474321 2.88198
thorax -10.2187 0.241579 2.43627
lowerneck -21.46 -3.59925 -8.78116
upperneck 13.5168 -3.02544 4.20748
head 7.88012 -1.48108 2.43531
rclavicle 7.15625e-015 -1.90833e-014
rhumerus -36.79 2.57746 -77.0541
rradius 74.5129
rwrist -7.4539
rhand -17.3418 15.9833
rfingers 7.12502
rthumb 8.90553 -13.8088
lclavicle 7.15625e-015 -1.90833e-014
lhumerus -31.8731 -2.21825 82.8195
lradius 59.2745
lwrist 11.3416
lhand -19.0087 26.1823
lfingers 7.12502
lthumb 7.29672 56.0365
rfemur -53.3332 -1.25387 19.4334
rtibia 47.8955
rfoot -16.9573 -7.37089
rtoes 1.02817
lfemur -53.3022 -2.04596 -19.2885
ltibia 46.1579
lfoot -18.1131 2.72479
ltoes 1.13299
218
root 1.13076 16.8865 -16.8564 27.012 -0.772933 0.43468
lowerback 25.1142 0.0595293 1.06831
upperback 3.14034 0.697997 2.89445
thorax -10.5438 0.346217 2.39223
lowerneck -21.4334 -3.8805 -9.08621
upperneck 12.9254 -3.39079 4.65538
head 7.71584 -1.61844 2.58466
rclavicle 2.38542e-015 -2.8625e-014
rhumerus -38.1957 2.34816 -76.6837
rradius 75.1841
rwrist -8.6979
rhand -17.4257 16.192
rfingers 7.12502
rthumb 8.82457 -13.6035
lclavicle 2.38542e-015 -2.8625e-014
lhumerus -33.0795 -2.14458 82.4774
lradius 59.386
lwrist 11.5125
lhand -20.356 24.7154
lfingers 7.12502
lthumb 5.99612 54.6105
rfemur -54.7693 -0.853332 19.5403
rtibia 48.4853
rfoot -16.9469 -7.38229
rtoes 0.83666
lfemur -54.6179 -1.61703 -19.1664
ltibia 46.6776
lfoot -18.2595 2.53071
ltoes 0.503569
219
root 1.11912 16.89 -16.8332 27.1008 0.371632 1.08279
lowerback 26.133 -0.44569 1.20941
upperback 3.38206 0.116881 2.92566
thorax -10.7847 0.0745343 2.55458
lowerneck -21.4819 -3.86142 -8.96899
upperneck 12.3341 -3.38275 4.64812
head 7.52327 -1.60211 2.56151
rclavicle -1.19271e-014 -1.51076e-014
rhumerus -39.6288 2.2215 -76.3947
rradius 75.7549
rwrist -9.8484
rhand -17.7494 16.239
rfingers 7.12502
rthumb 8.51217 -13.5695
lclavicle -1.19271e-014 -1.51076e-014
lhumerus -34.4103 -2.14464 82.1957
lradius 59.1638
lwrist 12.9521
lhand -23.4198 20.7449
lfingers 7.12502
lthumb 3.03766 50.703
rfemur -54.8767 -1.6823 19.2736
rtibia 49.1158
rfoot -17.4286 -7.93166
rtoes 0.664741
lfemur -54.8546 -2.43299 -19.4435
ltibia 47.0598
lfoot -18.6546 1.84374
ltoes -0.38948
220
root 1.11678 16.8649 -16.8291 27.765 0.662559 1.39254
lowerback 26.7109 -0.615992 1.16852
upperback 3.5115 -0.104087 2.87165
thorax -10.9314 -0.0254648 2.60335
lowerneck -21.7881 -3.63022 -8.54762
upperneck 11.8163 -3.09716 4.30347
head 7.36738 -1.46995 2.41139
rclavicle 2.38542e-015 -4.37326e-015
rhumerus -41.0476 1.99627 -76.179
rradius 76.2002
rwrist -10.5712
rhand -17.9647 16.4998
rfingers 7.12502
rthumb 8.30438 -13.317
lclavicle 2.38542e-015 -4.37326e-015
lhumerus -35.7232 -2.10936 81.8436
lradius 59.1663
lwrist 14.1139
lhand -23.9175 21.2478
lfingers 7.12502
lthumb 2.55706 51.2122
rfemur -55.904 -1.99623 19.1035
rtibia 49.7932
rfoot -17.6843 -7.97205
rtoes 1.23722
lfemur -55.9097 -2.6209 -19.6754
ltibia 47.6283
lfoot -18.86 1.61703
ltoes -0.0993396
221
root 1.12521 16.8118 -16.8436 28.953 0.168893 1.26047
lowerback 26.8962 -0.396537 0.971192
upperback 3.56914 0.122167 2.86456
thorax -10.9707 0.085778 2.63223
lowerneck -22.5694 -3.59994 -8.45354
upperneck 11.63 -2.98819 4.17691
head 7.42022 -1.41564 2.3625
rclavicle 1.66979e-014 1.07344e-014
rhumerus -42.4861 1.67936 -75.7771
rradius 76.6855
rwrist -11.1009
rhand -18.0945 16.973
rfingers 7.12502
rthumb 8.17917 -12.8487
lclavicle 1.66979e-014 1.07344e-014
lhumerus -36.8973 -2.0551 81.6744
lradius 59.1156
lwrist 14.6198
lhand -23.3464 22.9408
lfingers 7.12502
lthumb 3.10858 52.8979
rfemur -57.7688 -1.72393 19.0977
rtibia 50.4342
rfoot -17.6843 -7.72318
rtoes 1.62054
lfemur -57.6415 -2.22521 -19.7218
ltibia 48.1701
lfoot -18.8185 1.75263
ltoes 0.289923
222
root 1.14275 16.7313 -16.8695 30.6648 -0.946205 0.714629
lowerback 26.6342 0.0991359 0.667849
upperback 3.43067 0.660571 2.83547
thorax -11.0158 0.34392 2.58341
lowerneck -22.8047 -3.76599 -8.74167
upperneck 11.1082 -3.15738 4.54863
head 7.30625 -1.46478 2.50786
rclavicle 1.11319e-014 -2.78299e-015
rhumerus -44.1181 1.49885 -75.3932
rradius 77.2201
rwrist -11.5935
rhand -18.5788 17.0003
rfingers 7.12502
rthumb 7.71173 -12.8391
lclavicle 1.11319e-014 -2.78299e-015
lhumerus -38.3952 -2.01792 81.5507
lradius 59.2181
lwrist 15.0124
lhand -23.2061 24.2073
lfingers 7.12502
lthumb 3.24409 54.1623
rfemur -60.4394 -0.952922 19.25
rtibia 51.1221
rfoot -17.4653 -7.29303
rtoes 1.50932
lfemur -60.1217 -1.33331 -19.5926
ltibia 49.0022
lfoot -18.7224 2.11345
ltoes -0.765629
223
root 1.12679 16.7247 -16.8485 31.0684 -0.360868 1.04153
lowerback 27.4031 -0.132008 0.685872
upperback 3.57604 0.388816 2.85742
thorax -11.2391 0.220679 2.70335
lowerneck -22.53 -3.84272 -8.82617
upperneck 10.1504 -3.28796 4.81818
head 6.96053 -1.49822 2.59317
rclavicle -4.77083e-015 -7.95139e-016
rhumerus -45.8279 1.36251 -75.1806
rradius 77.7561
rwrist -11.887
rhand -19.022 16.3724
rfingers 7.12502
rthumb 7.28395 -13.4823
lclavicle -4.77083e-015 -7.95139e-016
lhumerus -40.1036 -2.19787 81.3411
lradius 59.587
lwrist 15.785
lhand -22.997 25.3164
lfingers 7.12502
lthumb 3.446 55.2683
rfemur -60.9964 -1.31023 19.1482
rtibia 51.7367
rfoot -17.8543 -7.68512
rtoes 1.11728
lfemur -60.7979 -1.67122 -19.6769
ltibia 49.6029
lfoot -18.9604 1.81698
ltoes -1.9145
224
root 1.11973 16.6757 -16.8459 32.294 -0.463061 1.09241
lowerback 27.315 -0.043295 0.474389
upperback 3.64642 0.435484 2.84718
thorax -11.1156 0.249442 2.79455
lowerneck -22.6223 -3.90666 -8.87954
upperneck 9.27826 -3.35547 4.96637
head 6.69607 -1.50935 2.63947
rclavicle -5.56597e-015 -1.27222e-014
rhumerus -47.1412 1.15722 -74.9126
rradius 77.9323
rwrist -11.8271
rhand -19.3924 16.3701
rfingers 7.12502
rthumb 6.92634 -13.4966
lclavicle -5.56597e-015 -1.27222e-014
lhumerus -41.4491 -2.4376 81.2042
lradius 59.6304
lwrist 16.5951
lhand -22.967 25.5784
lfingers 7.12502
lthumb 3.47499 55.5299
rfemur -62.787 -1.22636 19.0796
rtibia 52.4369
rfoot -17.9202 -7.75314
rtoes 1.08445
lfemur -62.5563 -1.51327 -19.7626
ltibia 50.3032
lfoot -19.0093 1.91641
ltoes -2.74985
225
root 1.12072 16.6294 -16.8384 33.1616 -0.469077 1.20702
lowerback 27.8417 -0.0213071 0.38809
upperback 3.66822 0.447536 2.83469
thorax -11.3652 0.26017 2.8342
lowerneck -23.0769 -3.92063 -8.71089
upperneck 8.79569 -3.3482 4.80136
head 6.60098 -1.50456 2.55493
rclavicle -5.56597e-015 2.06736e-014
rhumerus -48.6072 1.01051 -74.594
rradius 77.9159
rwrist -11.9468
rhand -19.7241 17.2826
rfingers 7.12502
rthumb 6.6062 -12.5944
lclavicle -5.56597e-015 2.06736e-014
lhumerus -42.8561 -2.60032 81.1429
lradius 59.4636
lwrist 17.1407
lhand -22.9182 25.3234
lfingers 7.12502
lthumb 3.52212 55.2741
rfemur -64.1602 -1.33387 19.026
rtibia 53.2302
rfoot -18.1611 -7.7634
rtoes 1.55803
lfemur -63.9226 -1.53658 -19.8794
ltibia 51.0479
lfoot -19.1469 2.24247
ltoes -3.77717
226
root 1.12856 16.5776 -16.8293 34.0047 -0.306253 1.3457
lowerback 28.4179 -0.128803 0.542614
upperback 3.59981 0.367527 2.80353
thorax -11.738 0.21972 2.74973
lowerneck -23.8783 -3.77394 -8.21436
upperneck 8.69763 -3.14763 4.25785
head 6.65941 -1.4298 2.31606
rclavicle 5.56597e-015 -4.77083e-015
rhumerus -50.5463 0.915787 -74.3698
rradius 78.3307
rwrist -12.3158
rhand -20.1516 17.8907
rfingers 7.12502
rthumb 6.19344 -11.9988
lclavicle 5.56597e-015 -4.77083e-015
lhumerus -44.6222 -2.83055 81.1471
lradius 59.5614
lwrist 17.5481
lhand -23.1644 24.0146
lfingers 7.12502
lthumb 3.28436 53.969
rfemur -65.4928 -1.59602 19.0355
rtibia 54.0162
rfoot -18.3064 -7.91998
rtoes 1.33789
lfemur -65.2674 -1.72048 -19.9445
ltibia 51.7595
lfoot -19.1296 2.46924
ltoes -4.35946
227
root 1.15741 16.4554 -16.8535 36.144 -0.819187 0.901307
lowerback 27.5776 0.0981289 0.747078
upperback 3.36811 0.70039 2.78802
thorax -11.5815 0.360053 2.48233
lowerneck -24.8782 -3.69674 -7.98936
upperneck 8.5276 -2.97047 3.89866
head 6.73356 -1.35815 2.17747
rclavicle 4.77083e-015 -2.66371e-014
rhumerus -52.3269 0.648261 -74.0737
rradius 78.9739
rwrist -12.4866
rhand -20.5416 17.9664
rfingers 7.12502
rthumb 5.81695 -11.9338
lclavicle 4.77083e-015 -2.66371e-014
lhumerus -46.2176 -2.98303 81.3637
lradius 59.8133
lwrist 17.6083
lhand -23.9678 22.3914
lfingers 7.12502
lthumb 2.50848 52.3564
rfemur -68.722 -1.29672 19.322
rtibia 54.9024
rfoot -17.9539 -7.69917
rtoes 1.14594
lfemur -68.4671 -1.35983 -19.6853
ltibia 52.8013
lfoot -18.8742 2.86017
ltoes -4.19951
228
root 1.13065 16.4714 -16.8092 35.588 0.118673 1.26489
lowerback 29.3942 -0.229923 0.921365
upperback 3.82412 0.397866 2.98953
thorax -11.9811 0.221668 2.74449
lowerneck -25.582 -3.80221 -8.09079
upperneck 7.92201 -3.0303 4.03958
head 6.6453 -1.36402 2.22814
rclavicle -9.54166e-015 7.15625e-015
rhumerus -53.5771 0.443482 -73.8435
rradius 79.1739
rwrist -12.6427
rhand -21.0498 17.9101
rfingers 7.12502
rthumb 5.32627 -12.003
lclavicle -9.54166e-015 7.15625e-015
lhumerus -47.4519 -2.82528 81.4972
lradius 59.9951
lwrist 17.7977
lhand -24.6069 21.2305
lfingers 7.12502
lthumb 1.89127 51.2018
rfemur -67.9517 -1.76747 19.3564
rtibia 55.539
rfoot -18.5208 -8.30565
rtoes 1.63596
lfemur -67.9374 -1.92271 -19.5999
ltibia 53.4191
lfoot -19.3901 2.61861
ltoes -4.04503
229
root 1.14054 16.3981 -16.8004 36.9442 -0.138069 0.911204
lowerback 29.1097 -0.135854 0.966821
upperback 3.8536 0.521387 2.99729
thorax -11.8056 0.273257 2.67402
lowerneck -25.6762 -3.90478 -8.16938
upperneck 6.96507 -3.16844 4.37308
head 6.35865 -1.39198 2.33298
rclavicle 7.95139e-016 3.18055e-015
rhumerus -54.4919 0.427852 -73.7214
rradius 78.739
rwrist -12.8062
rhand -21.5381 18.5132
rfingers 7.12502
rthumb 4.85478 -11.4112
lclavicle 7.95139e-016 3.18055e-015
lhumerus -48.6581 -2.6959 81.5092
lradius 60.1175
lwrist 18.9241
lhand -24.797 20.1957
lfingers 7.12502
lthumb 1.7076 50.1686
rfemur -69.9436 -1.51113 19.6812
rtibia 56.2964
rfoot -18.3923 -8.39856
rtoes 1.2704
lfemur -69.9757 -1.6822 -19.2961
ltibia 54.4286
lfoot -19.5671 2.87272
ltoes -3.75513
230
root 1.14904 16.3603 -16.7689 37.3292 0.246142 0.923977
lowerback 29.9151 -0.388459 1.32802
upperback 3.90514 0.337949 3.00269
thorax -12.1485 0.176069 2.55454
lowerneck -25.3488 -3.76115 -7.93503
upperneck 5.84593 -3.05916 4.34232
head 5.93254 -1.32843 2.30213
rclavicle -2.70347e-014 2.3059e-014
rhumerus -55.7918 0.331368 -73.6595
rradius 78.4126
rwrist -12.7947
rhand -21.8655 19.6188
rfingers 7.12502
rthumb 4.53864 -10.3125
lclavicle -2.70347e-014 2.3059e-014
lhumerus -50.1823 -3.12904 81.7271
lradius 60.3132
lwrist 20.5046
lhand -24.9851 20.6157
lfingers 7.12502
lthumb 1.52593 50.59
rfemur -70.5757 -1.81064 19.9293
rtibia 56.991
rfoot -18.5901 -8.8041
rtoes 0.892096
lfemur -70.7144 -2.03206 -19.0524
ltibia 55.2148
lfoot -19.9155 2.88294
ltoes -3.77216
